<?xml version="1.0" standalone="no"?>
<!DOCTYPE svg PUBLIC "-//W3C//DTD SVG 20010904//EN"
 "http://www.w3.org/TR/2001/REC-SVG-20010904/DTD/svg10.dtd">
<svg version="1.0" xmlns="http://www.w3.org/2000/svg"
 width="216.000000pt" height="216.000000pt" viewBox="0 0 216.000000 216.000000"
 preserveAspectRatio="xMidYMid meet">
<metadata>
Created by potrace 1.14, written by Peter Selinger 2001-2017
</metadata>
<g transform="translate(0.000000,216.000000) scale(0.100000,-0.100000)"
fill="#000000" stroke="none">
<path d="M995 2138 c-26 -15 -48 -39 -62 -68 -22 -43 -23 -53 -23 -337 0 -309
2 -328 47 -379 70 -80 209 -58 260 39 14 28 16 74 16 338 0 298 -1 307 -23
346 -42 76 -140 103 -215 61z"/>
<path d="M1835 1701 c-26 -7 -115 -53 -221 -116 -18 -11 -64 -37 -101 -58
-237 -135 -263 -159 -263 -246 0 -94 65 -157 159 -155 50 1 68 9 173 70 65 38
130 76 145 84 16 8 46 26 68 39 22 13 59 35 83 48 75 40 113 70 129 99 64 124
-42 268 -172 235z"/>
<path d="M236 1685 c-77 -27 -114 -88 -108 -174 4 -43 20 -74 34 -65 6 4 8 3
5 -2 -3 -6 -3 -15 1 -20 6 -9 201 -127 282 -171 14 -8 48 -27 75 -44 28 -16
66 -37 85 -47 19 -9 47 -26 63 -36 21 -14 40 -17 81 -14 93 8 149 67 149 159
0 81 -21 103 -190 200 -18 11 -48 27 -65 38 -18 10 -61 35 -95 55 -34 20 -66
36 -71 36 -6 0 -12 4 -14 8 -6 15 -132 80 -164 85 -17 3 -47 -1 -68 -8z"/>
<path d="M1365 1048 c-92 -26 -136 -132 -91 -221 22 -45 35 -54 269 -189 66
-37 123 -68 128 -68 5 0 9 -4 9 -10 0 -5 4 -10 9 -10 6 0 37 -16 71 -36 34
-20 68 -33 76 -30 9 4 12 2 8 -5 -10 -17 84 -3 114 17 68 45 93 121 65 194
-18 44 -47 75 -86 91 -18 7 -34 16 -37 19 -11 15 -129 78 -134 73 -3 -4 -6 -1
-6 5 0 7 -15 18 -32 27 -18 8 -53 26 -78 41 -25 15 -61 36 -80 46 -19 11 -50
29 -69 40 -37 23 -91 30 -136 16z"/>
<path d="M707 1039 c-16 -4 -34 -12 -40 -17 -7 -5 -39 -24 -72 -42 -82 -45
-96 -55 -87 -65 4 -5 1 -5 -6 -1 -10 6 -81 -32 -289 -156 -148 -88 -74 -315
96 -295 22 2 59 15 82 29 72 41 111 63 172 99 31 19 70 41 85 49 135 76 161
93 157 101 -4 5 0 6 8 4 7 -3 25 3 39 14 51 40 72 123 48 187 -13 34 -67 87
-80 79 -6 -3 -10 -2 -10 3 0 5 -9 12 -20 15 -11 3 -20 0 -20 -6 0 -8 -3 -8 -8
-2 -9 13 -21 14 -55 4z"/>
<path d="M1016 845 c-41 -22 -75 -64 -83 -105 -3 -19 -6 -167 -6 -327 l0 -293
26 -38 c44 -67 137 -93 204 -59 42 22 81 71 88 110 4 18 5 165 3 328 l-3 296
-29 37 c-47 62 -135 84 -200 51z"/>
</g>
</svg>
